#!OML:ASF Y:\EmotionMaleHayes\Project 1\Capture day 1\Session 1\Male1.ASF
:FULLY-SPECIFIED
:DEGREES
2532
root -29.804 17.1352 3.07015 247.241 96.8387 252.173
lowerback 4.98273 -0.810151 -1.57221
upperback 1.89562 -1.10416 1.22871
thorax -0.789915 -0.545945 2.20483
lowerneck -28.9452 3.7325 5.50402
upperneck 16.5921 3.70301 -3.55519
head 10.1582 1.61779 -1.54417
rclavicle 4.37326e-015 1.90833e-014
rhumerus -2.53193 17.8714 -66.5373
rradius 36.3036
rwrist 4.19213
rhand -6.98688 -32.0138
rfingers 7.12502
rthumb 18.8834 -61.1172
lclavicle 4.37326e-015 1.90833e-014
lhumerus -10.2487 -24.6731 76.1447
lradius 43.4001
lwrist -0.153454
lhand -18.8209 -27.8933
lfingers 7.12502
lthumb 7.47804 1.9545
rfemur 10.7778 -4.96479 6.07417
rtibia 4.08402
rfoot -15.0593 1.16532
rtoes 13.0117
lfemur 8.22969 0.881793 -13.3614
ltibia 8.85643
lfoot -12.563 10.0396
ltoes -14.7099
2533
root -29.7893 17.1292 3.03809 247.296 96.8783 252.244
lowerback 4.83996 -0.766033 -1.59626
upperback 1.95364 -1.04625 1.12831
thorax -0.655132 -0.518823 2.10889
lowerneck -28.9077 3.70095 5.66583
upperneck 16.4654 3.62156 -3.67179
head 10.1077 1.5767 -1.62586
rclavicle -7.85199e-015 7.95139e-015
rhumerus -3.1167 17.6385 -67.0666
rradius 36.1481
rwrist 4.12061
rhand -6.92531 -32.0924
rfingers 7.12502
rthumb 18.9427 -61.19
lclavicle -7.85199e-015 7.95139e-015
lhumerus -10.7172 -24.8303 76.5912
lradius 43.1945
lwrist -0.038864
lhand -19.0148 -27.4065
lfingers 7.12502
lthumb 7.29091 2.44785
rfemur 10.7977 -5.19293 5.80238
rtibia 4.21844
rfoot -15.071 1.41849
rtoes 12.2277
lfemur 8.39686 0.800349 -13.6066
ltibia 8.36682
lfoot -11.9493 10.05
ltoes -14.9144
2534
root -29.7778 17.12 3.00736 247.643 96.5481 252.637
lowerback 4.77497 -0.779873 -1.31762
upperback 1.98279 -1.05039 1.16101
thorax -0.593518 -0.520276 1.98475
lowerneck -28.8745 3.64069 5.55278
upperneck 16.4315 3.54476 -3.4975
head 10.08 1.55644 -1.55793
rclavicle 5.36719e-015 9.54166e-015
rhumerus -3.83867 17.7745 -67.5477
rradius 36.1142
rwrist 3.16381
rhand -7.97914 -32.1459
rfingers 7.12502
rthumb 17.9289 -61.3395
lclavicle 5.36719e-015 9.54166e-015
lhumerus -11.3516 -24.7052 77.1132
lradius 43.0717
lwrist -0.0839514
lhand -19.1601 -27.5199
lfingers 7.12502
lthumb 7.15066 2.33935
rfemur 10.9889 -5.2145 6.02411
rtibia 4.09218
rfoot -15.1001 1.35159
rtoes 11.5383
lfemur 8.47136 0.949142 -13.3068
ltibia 7.923
lfoot -10.9434 9.66413
ltoes -14.6826
2535
root -29.7702 17.1104 2.97808 248.272 96.2885 253.313
lowerback 4.79457 -0.784667 -1.18739
upperback 1.95845 -1.05065 1.19715
thorax -0.631221 -0.519394 1.94932
lowerneck -28.8733 3.5947 5.43627
upperneck 16.512 3.47418 -3.26012
head 10.0983 1.54662 -1.46572
rclavicle -4.37326e-015 -1.59028e-014
rhumerus -4.50915 17.5505 -68.0069
rradius 35.9297
rwrist 3.39611
rhand -7.89948 -32.2125
rfingers 7.12502
rthumb 18.0056 -61.399
lclavicle -4.37326e-015 -1.59028e-014
lhumerus -12.0554 -24.5354 77.6207
lradius 42.7195
lwrist -0.134697
lhand -19.0875 -29.1377
lfingers 7.12502
lthumb 7.22066 0.719143
rfemur 11.1588 -5.10715 6.19638
rtibia 3.968
rfoot -15.0965 1.20629
rtoes 11.687
lfemur 8.58204 0.991281 -13.1631
ltibia 7.36577
lfoot -9.77147 9.32806
ltoes -10.7835
2536
root -29.7622 17.0994 2.94911 248.241 96.1077 253.291
lowerback 4.81269 -0.785665 -1.17448
upperback 1.91438 -1.05138 1.24113
thorax -0.685923 -0.519248 1.98807
lowerneck -28.7576 3.60993 5.59765
upperneck 16.5147 3.46202 -3.36647
head 10.085 1.53928 -1.53269
rclavicle -5.91384e-015 4.77083e-015
rhumerus -5.15626 17.444 -68.4412
rradius 35.7469
rwrist 3.75614
rhand -7.83232 -31.847
rfingers 7.12502
rthumb 18.0702 -61.0276
lclavicle -5.91384e-015 4.77083e-015
lhumerus -12.8902 -24.5017 78.2052
lradius 42.7765
lwrist 0.155064
lhand -18.5009 -28.6836
lfingers 7.12502
lthumb 7.78688 1.15297
rfemur 11.1952 -4.86581 6.38959
rtibia 3.95515
rfoot -15.1815 0.975423
rtoes 11.9821
lfemur 8.88355 0.539459 -13.2782
ltibia 6.52745
lfoot -9.90714 10.1387
ltoes -9.41401
2537
root -29.7528 17.0874 2.91939 247.827 95.8427 252.858
lowerback 4.77624 -0.799096 -1.06453
upperback 1.89671 -1.06295 1.32112
thorax -0.683794 -0.524658 2.00868
lowerneck -28.7171 3.64479 5.65829
upperneck 16.5517 3.50058 -3.41788
head 10.096 1.5549 -1.55479
rclavicle -2.03754e-015 1.74931e-014
rhumerus -5.79088 17.4526 -68.8155
rradius 35.6511
rwrist 4.00133
rhand -7.94419 -31.8305
rfingers 7.12502
rthumb 17.9625 -61.021
lclavicle -2.03754e-015 1.74931e-014
lhumerus -13.5861 -24.2221 78.7915
lradius 42.6502
lwrist 0.0717474
lhand -18.2771 -28.3413
lfingers 7.12502
lthumb 8.00287 1.48717
rfemur 11.1859 -4.80669 6.65288
rtibia 3.994
rfoot -15.3033 0.771975
rtoes 10.9368
lfemur 9.2788 -0.314785 -13.4309
ltibia 5.5823
lfoot -10.391 12.1098
ltoes -10.6417
2538
root -29.7455 17.0759 2.88775 246.511 95.551 251.584
lowerback 4.84492 -0.812911 -0.953879
upperback 1.8412 -1.07367 1.48372
thorax -0.777512 -0.528602 2.11607
lowerneck -28.6003 3.66048 5.40272
upperneck 16.62 3.58106 -3.19904
head 10.0956 1.60377 -1.42243
rclavicle -8.44835e-016 3.18055e-015
rhumerus -6.49907 17.6334 -69.1367
rradius 35.6461
rwrist 4.08124
rhand -7.85383 -32.0205
rfingers 7.12502
rthumb 18.0495 -61.203
lclavicle -8.44835e-016 3.18055e-015
lhumerus -14.4311 -23.7956 79.5283
lradius 42.4689
lwrist -0.565796
lhand -18.7094 -27.9618
lfingers 7.12502
lthumb 7.58563 1.88213
rfemur 11.2108 -4.94113 6.89574
rtibia 4.06707
rfoot -15.2636 0.761398
rtoes 9.49609
lfemur 9.63906 -0.874506 -13.4316
ltibia 5.04242
lfoot -10.4805 13.2941
ltoes -10.7611
